<svg xmlns="http://www.w3.org/2000/svg" width="1200" height="630" viewBox="0 0 1200 630">
  <rect width="1200" height="630" fill="#f6f2ea"/>
  <rect x="42" y="42" width="1116" height="546" rx="28" fill="#fffdf8" stroke="#2b3036" stroke-width="3"/>
  <rect x="42" y="42" width="1116" height="118" rx="28" fill="#5e7482"/>
  <rect x="42" y="118" width="1116" height="42" fill="#5e7482"/>
  <text x="80" y="93" font-size="38" font-weight="800" fill="#ffffff">Helto Multi-Image Selector</text>
  <text x="80" y="132" font-size="24" font-weight="600" fill="#f8efe1">Search, select, and batch multiple images</text>
  <rect x="850" y="75" width="254" height="44" rx="22" fill="#fffdf8" stroke="#5e7482" stroke-width="2"/><text x="977.0" y="104" text-anchor="middle" font-size="21" font-weight="700" fill="#5e7482">image</text>
  <text x="82" y="230" font-size="28" font-weight="800" fill="#2b3036">Inputs</text>
  <text x="734" y="230" font-size="28" font-weight="800" fill="#2b3036">Outputs</text>
  <rect x="80" y="254" width="384" height="194" rx="18" fill="#f8faf9" stroke="#cad4d1" stroke-width="2"/>
  <rect x="734" y="254" width="384" height="194" rx="18" fill="#f8faf9" stroke="#cad4d1" stroke-width="2"/>
  <circle cx="106" cy="281" r="5" fill="#ffffff" stroke="#2b3036" stroke-width="2"/>
<text x="124" y="288" font-size="24" fill="#2b3036">folder grid selection</text>
<circle cx="106" cy="320" r="5" fill="#ffffff" stroke="#2b3036" stroke-width="2"/>
<text x="124" y="327" font-size="24" fill="#2b3036">hidden selected_images</text>
<circle cx="106" cy="359" r="5" fill="#ffffff" stroke="#2b3036" stroke-width="2"/>
<text x="124" y="366" font-size="24" fill="#2b3036">hidden resize_mode</text>
  <circle cx="760" cy="281" r="5" fill="#ffffff" stroke="#2b3036" stroke-width="2"/>
<text x="778" y="288" font-size="24" fill="#2b3036">images list output</text>
<circle cx="760" cy="320" r="5" fill="#ffffff" stroke="#2b3036" stroke-width="2"/>
<text x="778" y="327" font-size="24" fill="#2b3036">image_batch output</text>
  <path d="M496 330 C552 286, 626 286, 682 330" fill="none" stroke="#5e7482" stroke-width="10" stroke-linecap="round"/>
  <path d="M682 330 l-28 -24 l4 48 z" fill="#5e7482"/>
  <rect x="520" y="356" width="154" height="54" rx="27" fill="#eef3f4" stroke="#5e7482" stroke-width="2"/>
  <text x="597" y="390" text-anchor="middle" font-size="22" font-weight="800" fill="#5e7482">NODE</text>
  <rect x="106" y="490" width="316" height="86" rx="14" fill="#fff8ed" stroke="#c87d57" stroke-width="2"/><text x="128" y="514" font-size="20" font-weight="700" fill="#2b3036">Multi-folder scan, filters,</text><text x="128" y="536" font-size="20" font-weight="700" fill="#2b3036">sorting, preview</text><rect x="444" y="490" width="316" height="86" rx="14" fill="#fff8ed" stroke="#c87d57" stroke-width="2"/><text x="466" y="514" font-size="20" font-weight="700" fill="#2b3036">Resize modes: zoom to fit,</text><text x="466" y="536" font-size="20" font-weight="700" fill="#2b3036">pad, No resize</text><rect x="782" y="490" width="316" height="86" rx="14" fill="#fff8ed" stroke="#c87d57" stroke-width="2"/><text x="804" y="514" font-size="20" font-weight="700" fill="#2b3036">Privacy mode encrypts</text><text x="804" y="536" font-size="20" font-weight="700" fill="#2b3036">selections and thumbnails</text>
</svg>
