<svg xmlns="http://www.w3.org/2000/svg" width="1200" height="630" viewBox="0 0 1200 630">
  <rect width="1200" height="630" fill="#f6f2ea"/>
  <rect x="42" y="42" width="1116" height="546" rx="28" fill="#fffdf8" stroke="#2b3036" stroke-width="3"/>
  <rect x="42" y="42" width="1116" height="118" rx="28" fill="#486f9e"/>
  <rect x="42" y="118" width="1116" height="42" fill="#486f9e"/>
  <text x="80" y="93" font-size="38" font-weight="800" fill="#ffffff">Helto Video Comparer</text>
  <text x="80" y="132" font-size="24" font-weight="600" fill="#f8efe1">Synchronized side-by-side video review</text>
  <rect x="850" y="75" width="254" height="44" rx="22" fill="#fffdf8" stroke="#486f9e" stroke-width="2"/><text x="977.0" y="104" text-anchor="middle" font-size="21" font-weight="700" fill="#486f9e">HELTO / Video</text>
  <text x="82" y="230" font-size="28" font-weight="800" fill="#2b3036">Inputs</text>
  <text x="734" y="230" font-size="28" font-weight="800" fill="#2b3036">Outputs</text>
  <rect x="80" y="254" width="384" height="194" rx="18" fill="#f8faf9" stroke="#cad4d1" stroke-width="2"/>
  <rect x="734" y="254" width="384" height="194" rx="18" fill="#f8faf9" stroke="#cad4d1" stroke-width="2"/>
  <circle cx="106" cy="281" r="5" fill="#ffffff" stroke="#2b3036" stroke-width="2"/>
<text x="124" y="288" font-size="24" fill="#2b3036">video_1 or image frames</text>
<circle cx="106" cy="320" r="5" fill="#ffffff" stroke="#2b3036" stroke-width="2"/>
<text x="124" y="327" font-size="24" fill="#2b3036">video_2 or image frames</text>
<circle cx="106" cy="359" r="5" fill="#ffffff" stroke="#2b3036" stroke-width="2"/>
<text x="124" y="366" font-size="24" fill="#2b3036">optional audio_1 / audio_2</text>
<circle cx="106" cy="398" r="5" fill="#ffffff" stroke="#2b3036" stroke-width="2"/>
<text x="124" y="405" font-size="24" fill="#2b3036">frame_rate + privacy_mode</text>
  <circle cx="760" cy="281" r="5" fill="#ffffff" stroke="#2b3036" stroke-width="2"/>
<text x="778" y="288" font-size="24" fill="#2b3036">node UI preview</text>
  <path d="M496 330 C552 286, 626 286, 682 330" fill="none" stroke="#486f9e" stroke-width="10" stroke-linecap="round"/>
  <path d="M682 330 l-28 -24 l4 48 z" fill="#486f9e"/>
  <rect x="520" y="356" width="154" height="54" rx="27" fill="#eef3f4" stroke="#486f9e" stroke-width="2"/>
  <text x="597" y="390" text-anchor="middle" font-size="22" font-weight="800" fill="#486f9e">NODE</text>
  <rect x="106" y="490" width="316" height="86" rx="14" fill="#fff8ed" stroke="#d36c5c" stroke-width="2"/><text x="128" y="514" font-size="20" font-weight="700" fill="#2b3036">Encodes image batches to MP4</text><text x="128" y="536" font-size="20" font-weight="700" fill="#2b3036">previews</text><rect x="444" y="490" width="316" height="86" rx="14" fill="#fff8ed" stroke="#d36c5c" stroke-width="2"/><text x="466" y="514" font-size="20" font-weight="700" fill="#2b3036">Shared playback and timeline</text><text x="466" y="536" font-size="20" font-weight="700" fill="#2b3036">controls</text><rect x="782" y="490" width="316" height="86" rx="14" fill="#fff8ed" stroke="#d36c5c" stroke-width="2"/><text x="804" y="514" font-size="20" font-weight="700" fill="#2b3036">Audio source can be video 1,</text><text x="804" y="536" font-size="20" font-weight="700" fill="#2b3036">video 2, or muted</text>
</svg>
